<svg width="48" height="48" viewBox="0 0 48 48" fill="none" xmlns="http://www.w3.org/2000/svg">
<circle cx="24" cy="19" r="3" stroke="black" stroke-width="1.5" stroke-linecap="round"/>
<path d="M30 29C30 31.7614 26.7614 32 24 32C21.2386 32 18 31.7614 18 29C18 26.2386 21.2386 24 24 24C26.7614 24 30 26.2386 30 29Z" stroke="black" stroke-width="1.5" stroke-linecap="round"/>
<path d="M29.4033 22.3614C30.8838 22.3614 32.084 21.1612 32.084 19.6807C32.084 18.2002 30.8838 17 29.4033 17" stroke="black" stroke-width="1.5" stroke-linecap="round"/>
<path d="M33.4244 27.9999C33.4244 25.6337 31.6503 23.5538 29.4033 22.3613" stroke="black" stroke-width="1.5" stroke-linecap="round"/>
<path d="M18.021 22.3614C16.5405 22.3614 15.3403 21.1612 15.3403 19.6807C15.3403 18.2002 16.5405 17 18.021 17" stroke="black" stroke-width="1.5" stroke-linecap="round"/>
<path d="M13.9999 27.9999C13.9999 25.6337 15.7741 23.5538 18.021 22.3613" stroke="black" stroke-width="1.5" stroke-linecap="round"/>
</svg>
