<svg width="48" height="48" viewBox="0 0 48 48" fill="none" xmlns="http://www.w3.org/2000/svg">
<path d="M24.3584 18.9432C24.6416 18.0168 25.9448 17.9941 26.2602 18.91L27.1023 21.3556C27.2433 21.7652 27.6321 22.0374 28.0652 22.0298L30.6513 21.9847C31.6199 21.9678 32.0442 23.2002 31.2706 23.7832L29.2049 25.3398C28.8589 25.6005 28.7202 26.0543 28.8612 26.464L29.7033 28.9095C30.0187 29.8255 28.9777 30.6099 28.1842 30.0542L26.0655 28.5707C25.7106 28.3222 25.2361 28.3305 24.8901 28.5912L22.8244 30.1478C22.0508 30.7308 20.9831 29.9832 21.2663 29.0568L22.0225 26.5833C22.1492 26.169 21.9947 25.7203 21.6398 25.4718L19.5211 23.9883C18.7276 23.4326 19.1086 22.1862 20.0772 22.1693L22.6633 22.1241C23.0965 22.1166 23.4755 21.831 23.6021 21.4167L24.3584 18.9432Z" stroke="black" stroke-width="1.5"/>
</svg>
