<svg width="48" height="48" viewBox="0 0 48 48" fill="none" xmlns="http://www.w3.org/2000/svg">
<path d="M29.2472 29.6685C28.9354 31.0326 27.7219 32 26.3226 32H19.6774C18.2781 32 17.0646 31.0326 16.7528 29.6685L15.2026 22.8866C15.0705 22.3085 15.1127 21.7043 15.3238 21.1501L16.5497 17.932C16.9929 16.7687 18.1084 16 19.3532 16H26.6468C27.8916 16 29.0071 16.7687 29.4503 17.932L30.6762 21.1501C30.8873 21.7043 30.9295 22.3085 30.7974 22.8866L29.2472 29.6685Z" stroke="#0C0C0C" stroke-width="1.5"/>
<path d="M15 21.5L16.2929 22.7929C16.6834 23.1834 17.3166 23.1834 17.7071 22.7929L18.2929 22.2071C18.6834 21.8166 19.3166 21.8166 19.7071 22.2071L20.2929 22.7929C20.6834 23.1834 21.3166 23.1834 21.7071 22.7929L22.2929 22.2071C22.6834 21.8166 23.3166 21.8166 23.7071 22.2071L24.2929 22.7929C24.6834 23.1834 25.3166 23.1834 25.7071 22.7929L26.2929 22.2071C26.6834 21.8166 27.3166 21.8166 27.7071 22.2071L28.2929 22.7929C28.6834 23.1834 29.3166 23.1834 29.7071 22.7929L31 21.5" stroke="#0C0C0C" stroke-width="1.5"/>
<path d="M21.2998 29C21.2998 27.8954 22.1952 27 23.2998 27C24.4044 27 25.2998 27.8954 25.2998 29V32H21.2998V29Z" stroke="#0C0C0C" stroke-width="1.5"/>
</svg>
