<svg width="155" height="109" viewBox="0 0 155 109" fill="none" xmlns="http://www.w3.org/2000/svg">
<path d="M54.7955 6.63635V15.7727H34.25V53.1818H23V6.63635H54.7955Z" fill="#2E7D32"/>
<path d="M59.6725 53.1818V6.63635H92.127V15.7727H70.9225V25.3182H90.468V34.4773H70.9225V44.0454H92.127V53.1818H59.6725Z" fill="#2E7D32"/>
<path d="M23 109V62.4545H34.25V99.8636H53.6136V109H23Z" fill="#2E7D32"/>
<path d="M59.4375 109V74.0909H70.5511V109H59.4375ZM65.0057 70.0227C63.4451 70.0227 62.1042 69.5076 60.983 68.4773C59.8617 67.4318 59.3011 66.1742 59.3011 64.7045C59.3011 63.25 59.8617 62.0076 60.983 60.9773C62.1042 59.9318 63.4451 59.4091 65.0057 59.4091C66.5814 59.4091 67.9223 59.9318 69.0284 60.9773C70.1496 62.0076 70.7102 63.25 70.7102 64.7045C70.7102 66.1742 70.1496 67.4318 69.0284 68.4773C67.9223 69.5076 66.5814 70.0227 65.0057 70.0227Z" fill="#2E7D32"/>
<path d="M88.7386 89.0909V109H77.625V74.0909H88.1932V80.5H88.5795C89.3523 78.3636 90.6705 76.6894 92.5341 75.4773C94.3977 74.25 96.6174 73.6364 99.1932 73.6364C101.648 73.6364 103.777 74.1894 105.58 75.2955C107.398 76.3864 108.807 77.9167 109.807 79.8864C110.822 81.8409 111.322 84.1288 111.307 86.75V109H100.193V88.9318C100.208 86.9924 99.7159 85.4773 98.7159 84.3864C97.7311 83.2955 96.3598 82.75 94.6023 82.75C93.4356 82.75 92.4053 83.0076 91.5114 83.5227C90.6326 84.0227 89.9508 84.7424 89.4659 85.6818C88.9962 86.6212 88.7538 87.7576 88.7386 89.0909Z" fill="#2E7D32"/>
<path d="M128.21 99.8409L128.256 86.5909H129.801L139.619 74.0909H152.21L137.619 92H134.688L128.21 99.8409ZM118.188 109V62.4545H129.301V109H118.188ZM139.869 109L130.733 94.5L138.051 86.6136L152.71 109H139.869Z" fill="#2E7D32"/>
<rect y="5" width="12" height="104" fill="#2E7D32"/>
<path d="M124 29.5C125.421 29.5 126.637 29.0178 127.649 28.0534C128.661 27.089 129.167 25.9297 129.167 24.5755C129.167 23.2213 128.661 22.062 127.649 21.0976C126.637 20.1332 125.421 19.651 124 19.651C122.579 19.651 121.363 20.1332 120.351 21.0976C119.339 22.062 118.833 23.2213 118.833 24.5755C118.833 25.9297 119.339 27.089 120.351 28.0534C121.363 29.0178 122.579 29.5 124 29.5ZM124 47.5975C129.253 43.0013 133.149 38.8257 135.69 35.0708C138.23 31.3159 139.5 27.9816 139.5 25.068C139.5 20.5949 138.004 16.9323 135.011 14.0802C132.019 11.2281 128.349 9.80207 124 9.80207C119.651 9.80207 115.981 11.2281 112.989 14.0802C109.996 16.9323 108.5 20.5949 108.5 25.068C108.5 27.9816 109.77 31.3159 112.31 35.0708C114.851 38.8257 118.747 43.0013 124 47.5975ZM124 54.1224C117.068 48.5003 111.891 43.2783 108.468 38.4564C105.045 33.6345 103.333 29.1717 103.333 25.068C103.333 18.9124 105.411 14.0084 109.566 10.3561C113.72 6.70376 118.532 4.87759 124 4.87759C129.468 4.87759 134.28 6.70376 138.434 10.3561C142.589 14.0084 144.667 18.9124 144.667 25.068C144.667 29.1717 142.955 33.6345 139.532 38.4564C136.109 43.2783 130.932 48.5003 124 54.1224Z" fill="#2E7D32" stroke="#2E7D32" stroke-width="3"/>
</svg>
